# xmcd CD database file
#
# Track frame offsets:
#	150
#	14875
#	28332
#	41035
#	62787
#	76967
#	91125
#	107907
#
# Disc length: 1657 seconds
#
# Revision: 2
# Processed by: cddbd v1.5.2PL0 Copyright (c) Steve Scherf et al.
# Submitted via: CDex 1.51
#
DISCID=69067708
DTITLE=Lee Greenwood - At His Best
DYEAR=1995
DGENRE=Country
TTITLE0=God Bless The USA
TTITLE1=Hearts Aren't Made To Break (They're Made To Love)
TTITLE2=Touch And Go Crazy
TTITLE3=How Great Thou Art
TTITLE4=I.O.U.
TTITLE5=Dixie Road
TTITLE6=Ring On Her Finger, Time On Her Hands
TTITLE7=Somebody's Gonna Love You
EXTD=YEAR: 1995
EXTT0=
EXTT1=
EXTT2=
EXTT3=
EXTT4=
EXTT5=
EXTT6=
EXTT7=
PLAYORDER=
